<svg width="24" height="24" viewBox="0 0 24 24" fill="none" xmlns="http://www.w3.org/2000/svg">
<path d="M16 17V19H2V17C2 17 2 13 9 13C16 13 16 17 16 17ZM12.5 7.5C12.5 6.80777 12.2947 6.13108 11.9101 5.5555C11.5256 4.97993 10.9789 4.53133 10.3394 4.26642C9.69985 4.00151 8.99612 3.9322 8.31718 4.06725C7.63825 4.2023 7.01461 4.53564 6.52513 5.02513C6.03564 5.51461 5.7023 6.13825 5.56725 6.81718C5.4322 7.49612 5.50152 8.19985 5.76642 8.83939C6.03133 9.47893 6.47993 10.0256 7.0555 10.4101C7.63108 10.7947 8.30777 11 9 11C9.92826 11 10.8185 10.6313 11.4749 9.97487C12.1313 9.3185 12.5 8.42826 12.5 7.5ZM15.94 13C16.5547 13.4757 17.0578 14.0804 17.4137 14.7715C17.7696 15.4626 17.9697 16.2233 18 17V19H22V17C22 17 22 13.37 15.94 13ZM15 4C14.3117 3.99617 13.6385 4.20196 13.07 4.59C13.6774 5.43874 14.0041 6.45629 14.0041 7.5C14.0041 8.54371 13.6774 9.56126 13.07 10.41C13.6385 10.798 14.3117 11.0038 15 11C15.9283 11 16.8185 10.6313 17.4749 9.97487C18.1313 9.3185 18.5 8.42826 18.5 7.5C18.5 6.57174 18.1313 5.6815 17.4749 5.02513C16.8185 4.36875 15.9283 4 15 4Z" fill="#003398"/>
</svg>
