<svg width="25" height="25" viewBox="0 0 25 25" fill="none" xmlns="http://www.w3.org/2000/svg">
<path d="M4.25349 3.30047C3.98827 3.30047 3.73392 3.40582 3.54638 3.59336C3.35884 3.78089 3.25349 4.03525 3.25349 4.30047C3.25349 8.80915 5.04455 13.1332 8.23267 16.3213C11.4208 19.5094 15.7448 21.3005 20.2535 21.3005C20.5187 21.3005 20.7731 21.1951 20.9606 21.0076C21.1481 20.82 21.2535 20.5657 21.2535 20.3005V16.8005C21.2535 16.5352 21.1481 16.2809 20.9606 16.0934C20.7731 15.9058 20.5187 15.8005 20.2535 15.8005C19.0135 15.8005 17.8035 15.6005 16.6835 15.2305C16.3335 15.1205 15.9435 15.2005 15.6635 15.4805L13.4635 17.6805C10.6335 16.2405 8.32349 13.9205 6.87349 11.0905L9.07349 8.88047C9.35349 8.61047 9.43349 8.22047 9.32349 7.87047C8.95349 6.75047 8.75349 5.54047 8.75349 4.30047C8.75349 4.03525 8.64813 3.78089 8.46059 3.59336C8.27306 3.40582 8.0187 3.30047 7.75349 3.30047M16.2535 3.30047V6.30047H13.2535V8.30047H16.2535V11.3005H18.2535V8.30047H21.2535V6.30047H18.2535V3.30047" fill="black"/>
</svg>
